<?xml version="1.0" encoding="utf-8"?>
<!-- Generator: Adobe Illustrator 23.0.1, SVG Export Plug-In . SVG Version: 6.00 Build 0)  -->
<svg version="1.1" id="Layer_1" xmlns="http://www.w3.org/2000/svg" xmlns:xlink="http://www.w3.org/1999/xlink" x="0px" y="0px"
	 width="64px" height="23px" viewBox="0 0 56 20" style="enable-background:new 0 0 56 20;" xml:space="preserve">
<style type="text/css">
	.Graphic_x0020_Style_x0020_2{fill:url(#SVGID_1_);}
	.st0{fill:#FFFFFF;}
	.st1{fill:#5BC8F3;}
	.st2{fill:url(#SVGID_2_);}
	.st3{fill:url(#SVGID_3_);}
	.st4{fill:url(#SVGID_4_);}
</style>
<linearGradient id="SVGID_1_" gradientUnits="userSpaceOnUse" x1="0" y1="20" x2="-0.7071068" y2="20.7071075">
	<stop  offset="0" style="stop-color:#EE4447"/>
	<stop  offset="1" style="stop-color:#C5166C"/>
</linearGradient>
<title>badge_56x20-02</title>
<path d="M54,20H2c-1.1045694,0-2-0.8954296-2-2V2c0-1.1045694,0.8954305-2,2-2h52c1.1045685,0,2,0.8954305,2,2v16
	C56,19.1045704,55.1045685,20,54,20z"/>
<path class="st0" d="M16.9056854,6.1884775h0.3909626c0.3946743,0,0.620533,0.1729879,0.620533,0.4538045
	c0,0.2768741-0.2397728,0.4732828-0.6070824,0.4732828s-0.6163578-0.1748433-0.6418648-0.4459205h-0.4225006
	c0.025507,0.5048199,0.4480076,0.8385067,1.0643654,0.8385067c0.5991974,0,1.0583363-0.3573394,1.0583363-0.8424487
	c0-0.3946729-0.2629604-0.6478944-0.6302719-0.6852283V5.947082c0.3065567-0.0707259,0.5147915-0.3357735,0.5147915-0.6481261
	c0-0.4496307-0.3928185-0.7619834-0.9507408-0.7619834c-0.5908489,0-0.9720726,0.31815-1.0012913,0.8287668h0.4160061
	c0.0255089-0.2768741,0.2416286-0.4438334,0.5718365-0.4438334c0.3334541,0,0.5300961,0.1688147,0.5300961,0.4301519
	c0,0.2669029-0.2198296,0.4517174-0.5342693,0.4517174h-0.3789063V6.1884775z M19.5612659,7.4747591
	c0.2810478,0,0.5147896-0.1217413,0.6423283-0.3357735h0.033392v0.3005266h0.4067307V5.9783869
	c0-0.4517174-0.3023815-0.7186203-0.8385048-0.7186203c-0.4851093,0-0.8310871,0.2355981-0.874218,0.6029086h0.4085865
	C19.3868866,5.711484,19.5496712,5.62499,19.7852688,5.62499c0.2889328,0,0.4378052,0.1275382,0.4378052,0.3533969v0.1845827
	l-0.5792561,0.033392c-0.5082989,0.0315366-0.7953758,0.2534533-0.7953758,0.6383872
	C18.8484421,7.2254796,19.1489697,7.4747591,19.5612659,7.4747591z M19.6693249,7.1195068
	c-0.2295685,0-0.3965282-0.1120019-0.3965282-0.3044686c0-0.1885247,0.1335678-0.2887001,0.4280643-0.3084106l0.522213-0.033392
	v0.1787853C20.223074,6.917069,19.9874744,7.1195068,19.6693249,7.1195068z M22.7497234,5.6562948V5.3010426h-1.4080238v2.1384697
	h0.4220352V5.6562948H22.7497234z M24.4197788,5.265564c-0.2907867,0-0.5421543,0.1453934-0.6715469,0.388876h-0.0315361V5.3010426
	h-0.4062691v2.8494377h0.4220371V7.1155648h0.033392c0.1117687,0.2258587,0.3533955,0.3591943,0.6580963,0.3591943
	c0.539835,0,0.8834934-0.4259782,0.8834934-1.1054091C25.3074455,5.6896868,24.9637871,5.265564,24.4197788,5.265564z
	 M24.3001251,7.0958543c-0.3533974,0-0.5755463-0.2789612-0.5755463-0.7246494c0-0.4477754,0.2221489-0.7265043,0.5774002-0.7265043
	c0.3575726,0,0.571373,0.2729321,0.571373,0.7246494C24.8733521,6.8229222,24.6595516,7.0958543,24.3001251,7.0958543z
	 M26.044384,8.2151766c0.4359493,0,0.6381569-0.1669588,0.8208828-0.6873155l0.7972317-2.2268186h-0.4475441L26.680685,6.9996209
	h-0.033392l-0.5361252-1.6985784h-0.4596004l0.7740402,2.1463537l-0.0315361,0.1041174
	c-0.072813,0.215888-0.1864376,0.29844-0.3867893,0.29844c-0.0394211,0-0.1043491-0.0018554-0.1377411-0.0078845v0.3633685
	C25.9089622,8.211235,26.0091381,8.2151766,26.044384,8.2151766z M28.8766632,7.4787011
	c0.5282402,0,0.8742161-0.26899,0.8742161-0.6754889c0-0.2376852-0.1414509-0.4162388-0.4183254-0.4811673v-0.033392
	c0.2022057-0.0489283,0.3376293-0.2237716,0.3376293-0.4378042c0-0.3612814-0.2907887-0.5910821-0.7990856-0.5910821
	c-0.4832554,0-0.7995491,0.2453375-0.84268,0.6263289h0.4067307c0.0273628-0.1688142,0.1998863-0.2689896,0.4359493-0.2689896
	c0.2592506,0,0.3849335,0.1198859,0.3849335,0.2768741c0,0.1787853-0.129858,0.2768741-0.3849335,0.2768741h-0.3144398v0.327889
	h0.3200054c0.2986717,0,0.4535713,0.0983205,0.4535713,0.3044691c0,0.1924667-0.1725235,0.3162947-0.4535713,0.3162947
	c-0.2471924,0-0.4238911-0.0983205-0.465168-0.2868452h-0.4201813C28.0302715,7.2646685,28.4096413,7.4787011,28.8766632,7.4787011z
	 M30.7769833,7.4395123l0.9873791-1.4787488h0.0315361v1.4787488h0.4183235V5.3010426h-0.4183235l-0.9855232,1.4708643h-0.033392
	V5.3010426h-0.4183254v2.1384697H30.7769833z M34.5187263,5.3010426h-1.7693062v0.3552523h0.6734047v1.7832174h0.4224968V5.6562948
	h0.6734047V5.3010426z M36.3854218,6.8621116c-0.0783768,0.1669593-0.2532196,0.2592506-0.508297,0.2592506
	c-0.3380928,0-0.5560684-0.2376852-0.569519-0.612648V6.4850616h1.5100555V6.3378129
	c0-0.6715469-0.3594284-1.0780463-0.9544525-1.0780463c-0.6029053,0-0.9859848,0.4338622-0.9859848,1.1172357
	c0,0.6836052,0.3751945,1.103786,0.9878426,1.103786c0.4888191,0,0.8306198-0.2355981,0.9270859-0.6186767H36.3854218z
	 M35.8613548,5.6189609c0.3121223,0,0.5161819,0.2182064,0.5259209,0.5539799h-1.07967
	C35.3307953,5.8390226,35.5487709,5.6189609,35.8613548,5.6189609z M38.581398,7.4395123h0.9739304
	c0.4693413,0,0.7499237-0.2434826,0.7499237-0.61659c0-0.2592506-0.1804085-0.4614568-0.457283-0.4929934v-0.033392
	c0.2082367-0.0391889,0.3612823-0.2355981,0.3612823-0.4517174c0-0.3318315-0.2453384-0.543777-0.663662-0.543777H38.581398
	V7.4395123z M39.4648933,5.62499c0.2240028,0,0.3302078,0.1080599,0.3302078,0.2747869
	c0,0.1808724-0.1219749,0.2789612-0.3770523,0.2789612h-0.4183235V5.62499H39.4648933z M39.4472694,6.4890041
	c0.2847557,0,0.4359474,0.1001754,0.4359474,0.314208c0,0.2022061-0.1335678,0.3123527-0.3830795,0.3123527h-0.500412V6.4890041
	H39.4472694z M27.2637405,11.4514132c-0.9757271,0-1.7709694,0.7417717-1.7709694,1.7642488
	c0,1.0157986,0.7952423,1.7642908,1.7709694,1.7642908c0.9756851,0,1.7709675-0.7484922,1.7709675-1.7642908
	C29.034708,12.1931849,28.2394257,11.4514132,27.2637405,11.4514132z M27.2637405,14.2849302
	c-0.5346146,0-0.9957638-0.4410725-0.9957638-1.0692682c0-0.6348734,0.4611492-1.0692263,0.9957638-1.0692263
	c0.5346127,0,0.9957218,0.4343529,0.9957218,1.0692263C28.2594624,13.8438578,27.7983532,14.2849302,27.2637405,14.2849302z
	 M23.400404,11.4514132c-0.9757271,0-1.7709694,0.7417717-1.7709694,1.7642488c0,1.0157986,0.7952423,1.7642908,1.7709694,1.7642908
	c0.9756851,0,1.7709274-0.7484922,1.7709274-1.7642908C25.1713314,12.1931849,24.3760891,11.4514132,23.400404,11.4514132z
	 M23.400404,14.2849302c-0.5346546,0-0.9957638-0.4410725-0.9957638-1.0692682c0-0.6348734,0.4611092-1.0692263,0.9957638-1.0692263
	c0.5346127,0,0.9957218,0.4343529,0.9957218,1.0692263C24.3961258,13.8438578,23.9350166,14.2849302,23.400404,14.2849302z
	 M18.8047523,11.9927464v0.7484512h1.7910461c-0.0535107,0.4210367-0.1938,0.7284145-0.4076786,0.9422932
	c-0.2606297,0.2606277-0.6683083,0.5479698-1.3833675,0.5479698c-1.1026592,0-1.9647274-0.8888235-1.9647274-1.9914846
	s0.8620682-1.9914837,1.9647274-1.9914837c0.5948029,0,1.0291977,0.2339134,1.3499737,0.5346127l0.527935-0.5279341
	C20.234911,9.8274965,19.6401482,9.5,18.8047523,9.5c-1.5103397,0-2.7800884,1.2296772-2.7800884,2.7399759
	c0,1.5103416,1.2697487,2.7399769,2.7800884,2.7399769c0.8153191,0,1.4301586-0.2673063,1.9113007-0.768527
	c0.4945431-0.4945431,0.6482735-1.1895237,0.6482735-1.7508926c0-0.1737652-0.0133572-0.3341331-0.0401535-0.4677868H18.8047523z
	 M37.599308,12.57411c-0.1470108-0.3942814-0.5947647-1.1226969-1.5103416-1.1226969
	c-0.9088593,0-1.6639862,0.7150583-1.6639862,1.7642488c0,0.9890852,0.7484474,1.7642908,1.7508888,1.7642908
	c0.8085976,0,1.2764282-0.4945421,1.4701881-0.7818842l-0.6014404-0.40096
	c-0.2004814,0.2940207-0.4744644,0.4878216-0.8687477,0.4878216c-0.3943214,0-0.674984-0.1804438-0.8554306-0.5346127
	l2.3590927-0.9756861L37.599308,12.57411z M35.1935043,13.1622343c-0.0200768-0.6816654,0.527935-1.0291557,0.9221764-1.0291557
	c0.3074608,0,0.5680885,0.1536894,0.6549492,0.3742456L35.1935043,13.1622343z M33.275486,14.8730135h0.7752037V9.6871643H33.275486
	V14.8730135z M32.0057373,11.8456945H31.979023c-0.1737652-0.2071581-0.5078983-0.3942814-0.928936-0.3942814
	c-0.882103,0-1.6907444,0.7752066-1.6907444,1.7709274c0,0.9890852,0.8086414,1.7576122,1.6907444,1.7576122
	c0.4210377,0,0.7551708-0.1871233,0.928936-0.40096h0.0267143v0.2539492c0,0.6749868-0.3608475,1.0358343-0.9422932,1.0358343
	c-0.4744244,0-0.768528-0.3408117-0.8887825-0.6281958l-0.6749859,0.2807055
	c0.1938,0.4677868,0.7083778,1.0425129,1.5637684,1.0425129c0.9089012,0,1.6774273-0.5346127,1.6774273-1.8377962v-3.1676912
	h-0.7351341V11.8456945z M31.1169548,14.2849302c-0.5346127,0-0.9824066-0.447751-0.9824066-1.0625896
	c0-0.6214752,0.447794-1.0759048,0.9824066-1.0759048c0.527935,0,0.9422531,0.4544296,0.9422531,1.0759048
	C32.0592079,13.8371792,31.6448898,14.2849302,31.1169548,14.2849302z M41.2305527,9.6872473h-1.8547173v5.1857662h0.7739182
	v-1.9647293h1.0807991c0.8580055,0,1.7012405-0.6211023,1.7012405-1.6105185S42.0885582,9.6872473,41.2305527,9.6872473z
	 M41.2505493,12.1865892h-1.1007957v-1.7776051h1.1007957c0.5787086,0,0.9073219,0.4791517,0.9073219,0.8887815
	C42.1578712,11.6996803,41.829258,12.1865892,41.2505493,12.1865892z M46.0340691,11.4418726
	c-0.5604172,0-1.1408653,0.2468567-1.3810425,0.7939138l0.6871796,0.2868862
	c0.1467628-0.2868862,0.4202919-0.3803024,0.7071762-0.3803024c0.4002991,0,0.8072739,0.2401781,0.8139496,0.6671467v0.0533867
	c-0.1401215-0.0800591-0.4403229-0.2001476-0.8072701-0.2001476c-0.7405281,0-1.4944115,0.4069748-1.4944115,1.1675377
	c0,0.693819,0.6070824,1.1408234,1.2875862,1.1408234c0.5203857,0,0.8072701-0.2334995,0.9874229-0.5070276h0.0266724v0.4002962
	h0.7472076v-1.9881248C47.6085396,11.9555798,46.9213562,11.4418726,46.0340691,11.4418726z M45.9406509,14.2839346
	c-0.2535324,0-0.6071205-0.1267252-0.6071205-0.4403257c0-0.4002542,0.4403229-0.5537357,0.8206253-0.5537357
	c0.3402328,0,0.500351,0.0734215,0.7071762,0.1734753C46.8012695,13.9437037,46.3876572,14.2839346,45.9406509,14.2839346z
	 M50.330555,11.5552826l-0.8873329,2.2482967h-0.0267143l-0.920639-2.2482967h-0.8339424l1.3810005,3.1423054l-0.7872353,1.7479477
	h0.8072281l2.1282501-4.8902531H50.330555z M43.3587608,14.8730135h0.77388V9.6872473h-0.77388V14.8730135z"/>
<g>
	<g>
		<g>
			<path class="st1" d="M4.3285928,4.8344355C4.2079644,4.9620323,4.1367407,5.1600237,4.1367407,5.4167938v9.1664534
				c0,0.2567291,0.0712237,0.4547615,0.1918521,0.5823593l0.0306134,0.0299492l5.1348267-5.1349516V10V9.9394369
				L4.3592062,4.8044858L4.3285928,4.8344355z"/>
			<linearGradient id="SVGID_2_" gradientUnits="userSpaceOnUse" x1="12.8960514" y1="10.0001659" x2="2.8671446" y2="10.0001659">
				<stop  offset="0" style="stop-color:#FFDF00"/>
				<stop  offset="0.408683" style="stop-color:#FBBC0E"/>
				<stop  offset="0.7753748" style="stop-color:#F9A418"/>
				<stop  offset="1" style="stop-color:#F89B1C"/>
			</linearGradient>
			<path class="st2" d="M11.2055178,11.7729187l-1.7114849-1.7123146V10V9.9394369l1.7119827-1.7120237l0.03866,0.021944
				l2.0279465,1.1522722c0.5792065,0.329114,0.5792065,0.8676682,0,1.1967821l-2.0279875,1.1522732L11.2055178,11.7729187z"/>
			<linearGradient id="SVGID_3_" gradientUnits="userSpaceOnUse" x1="10.2934189" y1="10.9512568" x2="0.8607398" y2="20.3839359">
				<stop  offset="0" style="stop-color:#EE4447"/>
				<stop  offset="1" style="stop-color:#C5166C"/>
			</linearGradient>
			<path class="st3" d="M11.2446346,11.7506847L9.4940329,10l-5.1654401,5.1656065
				c0.1910224,0.2020969,0.5062399,0.2271109,0.8613214,0.0253448L11.2446346,11.7506847"/>
			<linearGradient id="SVGID_4_" gradientUnits="userSpaceOnUse" x1="0.818714" y1="-0.4259619" x2="8.5202408" y2="7.2755651">
				<stop  offset="0" style="stop-color:#269E6F"/>
				<stop  offset="0.05089" style="stop-color:#2BA06F"/>
				<stop  offset="0.4663231" style="stop-color:#53B26B"/>
				<stop  offset="0.7971124" style="stop-color:#6BBD69"/>
				<stop  offset="1" style="stop-color:#74C168"/>
			</linearGradient>
			<path class="st4" d="M11.2446756,8.2493572L5.1899142,4.8090901c-0.3550816-0.201766-0.6702991-0.1767526-0.8613214,0.0253453
				L9.4940329,10L11.2446756,8.2493572z"/>
		</g>
	</g>
</g>
</svg>
